PathFileType	4	(X/Y/Z)	C:\Users\WrightLab\Desktop\Jo\P1.2Trial7.trc
DataRate	CameraRate	NumFrames	NumMarkers	Units	OrigDataRate	OrigDataStartFrame	OrigNumFrames
100.00	100.00	       28	19	mm	100.00	1	       539
Frame#	Time	Headset_Front			Headset_Back			Headset_Left			Headset_Right			Left_Shoulder			Right_Shoulder			Sternum			C7			Left Elbow			Right Elbow			Left Wrist			Right Wrist			Left ASIS			Right ASIS			S2			Left Knee			Right Knee			Left Ankle			Right Ankle			
		X1	Y1	Z1	X2	Y2	Z2	X3	Y3	Z3	X4	Y4	Z4	X5	Y5	Z5	X6	Y6	Z6	X7	Y7	Z7	X8	Y8	Z8	X9	Y9	Z9	X10	Y10	Z10	X11	Y11	Z11	X12	Y12	Z12	X13	Y13	Z13	X14	Y14	Z14	X15	Y15	Z15	X16	Y16	Z16	X17	Y17	Z17	X18	Y18	Z18	X19	Y19	Z19	

1	0.000																																					-56.15595	848.67316	-1573.47632													-54.70308	41.20745	-1734.74121				
2	0.010																																					-56.14664	848.67914	-1573.40942													-54.70308	41.20745	-1734.74121				
3	0.020																																					-55.70140	847.73523	-1574.75232													-54.70308	41.20745	-1734.74121				
4	0.030																																					-55.68089	847.74854	-1574.60474													-54.74889	41.32875	-1734.51697				
5	0.040																																					-55.65866	847.76294	-1574.44495													-54.48425	40.65752	-1734.23315				
6	0.050																																					-55.63820	847.76813	-1574.29700													-54.48425	40.65752	-1734.23315				
7	0.060																																					-55.59372	847.77417	-1573.97498													-54.41783	40.75616	-1733.94690				
8	0.070																																					-56.13971	847.87738	-1571.81641													-54.18853	40.93328	-1733.32251				
9	0.080																																					-56.12099	847.81989	-1571.67578													-53.87829	40.92779	-1733.02393				
10	0.090																																					-56.09056	847.80945	-1571.45447													-53.87829	40.92779	-1733.02393				
11	0.100																																					-56.04443	847.67529	-1571.10803													-53.87829	40.92779	-1733.02393				
12	0.110																																					-55.99258	847.53552	-1570.71875													-53.75451	40.98821	-1732.76550				
13	0.120																																					-55.72692	846.13916	-1570.79077													-53.74865	41.11292	-1732.48193				
14	0.130																																					-55.56843	845.18060	-1570.37219													-53.55069	41.24249	-1731.99536				
15	0.140																																					-55.55352	844.84448	-1570.23206													-53.72277	40.07708	-1731.08435				
16	0.150																																					-55.24455	842.51190	-1570.72473													-53.72277	40.07708	-1731.08435				
17	0.160																																					-55.09229	842.35071	-1569.60352													-53.50182	40.24776	-1730.48389				
18	0.170																																					-55.54329	842.39960	-1566.75391													-54.65132	38.28376	-1729.08594				
19	0.180																																					-55.40007	842.58295	-1565.73120													-54.48051	38.41482	-1728.62463				
20	0.190																									82.33174	919.37720	-1717.48096										-54.66925	841.97144	-1565.02991													-54.57322	37.27311	-1727.58447				
21	0.200													27.24661	1209.21777	-1673.08093										82.72646	919.50916	-1715.95581										-53.64524	840.54114	-1565.65430													-54.22357	37.23933	-1727.31360				
22	0.210													27.53279	1209.50488	-1671.82910										83.07687	918.55841	-1712.16003										-54.40862	839.62561	-1561.28540													-53.77534	36.55737	-1726.86951				
23	0.220													28.24194	1209.11340	-1669.23560										83.91573	918.01239	-1710.64063										-54.56540	838.92352	-1559.11035													-53.52066	36.85521	-1725.95483				
24	0.230													28.82327	1208.67078	-1666.83057										84.53606	917.91986	-1708.99622										-54.57937	837.39075	-1557.60364													-53.25541	36.18412	-1725.66711				
25	0.240													29.00417	1207.30029	-1662.55530										85.24086	917.74927	-1707.30554										-53.68736	835.18536	-1559.10498													-53.23962	36.29929	-1725.39539				
26	0.250													29.22358	1206.50928	-1659.71289										86.01391	917.59454	-1705.38989										-54.53551	834.93726	-1555.02100													-52.94225	36.34103	-1725.00830				
27	0.260													29.39626	1205.39355	-1656.16724										87.88966	915.78192	-1703.14807										-54.75779	833.77759	-1553.68640													-52.79456	36.29870	-1724.95667				
28	0.270													29.56555	1204.85876	-1654.01978										87.78973	915.07166	-1699.04028										-55.00278	832.06842	-1553.84106													-52.79714	36.38403	-1724.76941				
